<?xml version="1.0" encoding="UTF-8"?>
<!DOCTYPE svg PUBLIC "-//W3C//DTD SVG 1.1//EN" "http://www.w3.org/Graphics/SVG/1.1/DTD/svg11.dtd">
<!-- Creator: CorelDRAW X7 -->
<svg xmlns="http://www.w3.org/2000/svg" xml:space="preserve" width="221px" height="201px" version="1.1" style="shape-rendering:geometricPrecision; text-rendering:geometricPrecision; image-rendering:optimizeQuality; fill-rule:evenodd; clip-rule:evenodd"
viewBox="0 0 45 41"
 xmlns:xlink="http://www.w3.org/1999/xlink">
 <defs>
  <style type="text/css">
   <![CDATA[
    .str0 {stroke:#373435;stroke-width:0.617505}
    .fil1 {fill:#373435}
    .fil0 {fill:#ED3237}
   ]]>
  </style>
 </defs>
 <g id="Camada_x0020_1">
  <metadata id="CorelCorpID_0Corel-Layer"/>
  <path class="fil0 str0" d="M24 29c0,0 0,0 -1,0 0,0 0,0 0,0 -1,0 -1,0 -1,-1l-3 -6 -2 1c0,1 -1,1 -1,1l-5 0c4,5 10,9 12,10 2,-1 8,-5 12,-10l-6 0 -5 5z"/>
  <path class="fil0 str0" d="M28 21c0,0 0,0 1,0l8 0c0,-1 1,-3 1,-4 0,-4 -3,-7 -7,-7 -3,0 -5,1 -6,3 -1,1 -2,1 -3,0 -1,-2 -3,-3 -6,-3 -4,0 -7,3 -7,7 0,1 0,3 1,4l6 0 3 -3c0,-1 1,-1 1,-1 1,0 1,1 2,1l2 7 4 -4z"/>
  <path class="fil1" d="M8 17l-3 0c2,-9 10,-15 18,-15 9,0 17,7 19,15l2 0c-2,-10 -11,-17 -21,-17 -10,0 -18,7 -21,17l0 -6 -2 0 0 7c0,0 1,1 1,1l7 0 0 -2z"/>
  <path class="fil1" d="M44 22l-7 0 0 3 4 0c-2,8 -10,14 -19,14 -9,0 -17,-6 -19,-15l-2 0c2,10 11,17 21,17 10,0 19,-7 21,-16l0 6 2 0 0 -7c0,-1 0,-2 -1,-2z"/>
 </g>
</svg>
