<?xml version="1.0" encoding="UTF-8"?>
<!DOCTYPE svg PUBLIC "-//W3C//DTD SVG 1.1//EN" "http://www.w3.org/Graphics/SVG/1.1/DTD/svg11.dtd">
<!-- Creator: CorelDRAW X7 -->
<svg xmlns="http://www.w3.org/2000/svg" xml:space="preserve" width="222px" height="201px" version="1.1" style="shape-rendering:geometricPrecision; text-rendering:geometricPrecision; image-rendering:optimizeQuality; fill-rule:evenodd; clip-rule:evenodd"
viewBox="0 0 46 42"
 xmlns:xlink="http://www.w3.org/1999/xlink">
 <defs>
  <style type="text/css">
   <![CDATA[
    .str0 {stroke:#373435;stroke-width:0.619779}
    .str1 {stroke:#373435;stroke-width:0.186007}
    .fil1 {fill:#FEFEFE}
    .fil0 {fill:#ED3237}
   ]]>
  </style>
 </defs>
 <g id="Camada_x0020_1">
  <metadata id="CorelCorpID_0Corel-Layer"/>
  <path class="fil0 str0" d="M25 29c-1,0 -1,0 -2,0 0,0 0,0 0,0 -1,0 -1,0 -1,-1l-3 -6 -2 2c0,0 0,0 -1,0l-4 0c3,5 9,9 11,11 3,-2 9,-6 12,-11l-6 0 -4 5z"/>
  <path class="fil0 str0" d="M28 22c0,-1 1,-1 1,-1l8 0c1,-1 1,-2 1,-4 0,-4 -3,-7 -7,-7 -2,0 -5,1 -6,3 -1,1 -2,1 -3,0 -1,-2 -3,-3 -6,-3 -3,0 -7,3 -7,7 0,2 1,3 1,4l6 0 3 -3c0,0 1,-1 1,-1 1,1 1,1 2,2l2 6 4 -3z"/>
  <path class="fil1 str1" d="M8 17l-3 0c2,-9 10,-15 18,-15 9,0 17,7 19,16l3 -1c-3,-10 -12,-17 -22,-17 -10,0 -18,7 -21,17l0 -6 -2 0 0 7c0,1 1,1 1,1l7 0 0 -2z"/>
  <path class="fil1 str1" d="M45 23l-7 0 0 2 3 0c-2,8 -10,14 -19,14 -9,0 -16,-6 -18,-15l-3 1c3,9 11,17 21,17 10,0 19,-7 21,-17l0 6 3 0 0 -7c0,-1 -1,-1 -1,-1z"/>
 </g>
</svg>
